NotoSansDisplay-SemiBoldItalic.ufo
<glyph name="Eth" format="2">
  <advance width="645"/>
  <unicode hex="00D0"/>
  <anchor x="269" y="0" name="bottom"/>
  <anchor x="415" y="714" name="top"/>
  <anchor x="365" y="357" name="center"/>
  <anchor x="722" y="714" name="topright"/>
  <outline>
    <contour>
      <point x="366" y="415" type="line"/>
      <point x="46" y="415" type="line"/>
      <point x="18" y="291" type="line"/>
      <point x="337" y="291" type="line"/>
    </contour>
    <component base="D"/>
  </outline>
</glyph>
<glyph name="uni018E" format="2">
  <advance width="519"/>
  <unicode hex="018E"/>
  <anchor x="180" y="0" name="bottom"/>
  <anchor x="322" y="714" name="top"/>
  <outline>
    <contour>
      <point x="-1" y="0" type="line"/>
      <point x="382" y="0" type="line"/>
      <point x="534" y="714" type="line"/>
      <point x="150" y="714" type="line"/>
      <point x="123" y="590" type="line"/>
      <point x="360" y="590" type="line"/>
      <point x="330" y="433" type="line"/>
      <point x="108" y="433" type="line"/>
      <point x="80" y="309" type="line"/>
      <point x="301" y="309" type="line"/>
      <point x="264" y="125" type="line"/>
      <point x="26" y="125" type="line"/>
    </contour>
  </outline>
</glyph>
<glyph name="uni0191" format="2">
  <advance width="632"/>
  <unicode hex="0191"/>
  <anchor x="118" y="0" name="bottom"/>
  <anchor x="505" y="714" name="top"/>
  <anchor x="721" y="714" name="topright"/>
  <outline>
    <contour>
      <point x="145" y="-11" type="curve" smooth="yes"/>
      <point x="264" y="-11"/>
      <point x="325" y="59"/>
      <point x="349" y="173" type="curve" smooth="yes"/>
      <point x="378" y="309" type="line"/>
      <point x="574" y="309" type="line"/>
      <point x="602" y="433" type="line"/>
      <point x="406" y="433" type="line"/>
      <point x="437" y="590" type="line"/>
      <point x="649" y="590" type="line"/>
      <point x="676" y="714" type="line"/>
      <point x="315" y="714" type="line"/>
      <point x="203" y="181" type="line" smooth="yes"/>
      <point x="193" y="133"/>
      <point x="173" y="99"/>
      <point x="142" y="99" type="curve" smooth="yes"/>
      <point x="114" y="99"/>
      <point x="100" y="118"/>
      <point x="100" y="147" type="curve" smooth="yes"/>
      <point x="100" y="164"/>
      <point x="105" y="181"/>
      <point x="111" y="196" type="curve"/>
      <point x="-7" y="235" type="line"/>
      <point x="-17" y="212"/>
      <point x="-28" y="181"/>
      <point x="-28" y="145" type="curve" smooth="yes"/>
      <point x="-28" y="53"/>
      <point x="27" y="-11"/>
    </contour>
  </outline>
</glyph>
<glyph name="uni0262" format="2">
  <advance width="562"/>
  <unicode hex="0262"/>
  <anchor x="226" y="0" name="bottom"/>
  <anchor x="343" y="546" name="top"/>
  <anchor x="569" y="546" name="topright"/>
  <outline>
    <contour>
      <point x="274" y="-10" type="curve" smooth="yes"/>
      <point x="348" y="-10"/>
      <point x="404" y="6"/>
      <point x="458" y="33" type="curve"/>
      <point x="517" y="309" type="line"/>
      <point x="284" y="309" type="line"/>
      <point x="262" y="210" type="line"/>
      <point x="359" y="210" type="line"/>
      <point x="340" y="118" type="line"/>
      <point x="325" y="113"/>
      <point x="308" y="109"/>
      <point x="290" y="109" type="curve" smooth="yes"/>
      <point x="222" y="109"/>
      <point x="186" y="149"/>
      <point x="186" y="232" type="curve" smooth="yes"/>
      <point x="186" y="331"/>
      <point x="224" y="437"/>
      <point x="348" y="437" type="curve" smooth="yes"/>
      <point x="398" y="437"/>
      <point x="449" y="423"/>
      <point x="485" y="405" type="curve"/>
      <point x="531" y="517" type="line"/>
      <point x="486" y="541"/>
      <point x="419" y="556"/>
      <point x="356" y="556" type="curve" smooth="yes"/>
      <point x="123" y="556"/>
      <point x="43" y="393"/>
      <point x="43" y="222" type="curve" smooth="yes"/>
      <point x="43" y="73"/>
      <point x="127" y="-10"/>
    </contour>
  </outline>
</glyph>
<glyph name="uni026A" format="2">
  <advance width="334"/>
  <unicode hex="026A"/>
  <anchor x="112" y="0" name="bottom"/>
  <anchor x="228" y="546" name="top"/>
  <outline>
    <contour>
      <point x="-37" y="0" type="line"/>
      <point x="257" y="0" type="line"/>
      <point x="273" y="72" type="line"/>
      <point x="205" y="114" type="line"/>
      <point x="272" y="432" type="line"/>
      <point x="357" y="474" type="line"/>
      <point x="374" y="546" type="line"/>
      <point x="79" y="546" type="line"/>
      <point x="63" y="474" type="line"/>
      <point x="131" y="432" type="line"/>
      <point x="64" y="114" type="line"/>
      <point x="-21" y="72" type="line"/>
    </contour>
  </outline>
</glyph>
<glyph name="uni0274" format="2">
  <advance width="639"/>
  <unicode hex="0274"/>
  <anchor x="265" y="0" name="bottom"/>
  <anchor x="381" y="546" name="top"/>
  <anchor x="660" y="546" name="topright"/>
  <outline>
    <contour>
      <point x="17" y="0" type="line"/>
      <point x="151" y="0" type="line"/>
      <point x="197" y="222" type="line" smooth="yes"/>
      <point x="208" y="275"/>
      <point x="222" y="382"/>
      <point x="223" y="382" type="curve"/>
      <point x="350" y="0" type="line"/>
      <point x="511" y="0" type="line"/>
      <point x="627" y="546" type="line"/>
      <point x="493" y="546" type="line"/>
      <point x="446" y="330" type="line" smooth="yes"/>
      <point x="437" y="285"/>
      <point x="422" y="163"/>
      <point x="421" y="163" type="curve"/>
      <point x="296" y="546" type="line"/>
      <point x="133" y="546" type="line"/>
    </contour>
  </outline>
</glyph>
<glyph name="uni0280" format="2">
  <advance width="553"/>
  <unicode hex="0280"/>
  <anchor x="222" y="0" name="bottom"/>
  <anchor x="338" y="546" name="top"/>
  <outline>
    <contour>
      <point x="17" y="0" type="line"/>
      <point x="158" y="0" type="line"/>
      <point x="201" y="203" type="line"/>
      <point x="250" y="203" type="line"/>
      <point x="328" y="0" type="line"/>
      <point x="480" y="0" type="line"/>
      <point x="383" y="222" type="line"/>
      <point x="461" y="249"/>
      <point x="518" y="297"/>
      <point x="518" y="401" type="curve" smooth="yes"/>
      <point x="518" y="494"/>
      <point x="450" y="546"/>
      <point x="334" y="546" type="curve" smooth="yes"/>
      <point x="133" y="546" type="line"/>
    </contour>
    <contour>
      <point x="223" y="303" type="line"/>
      <point x="251" y="441" type="line"/>
      <point x="307" y="441" type="line" smooth="yes"/>
      <point x="353" y="441"/>
      <point x="376" y="417"/>
      <point x="376" y="385" type="curve" smooth="yes"/>
      <point x="376" y="325"/>
      <point x="324" y="303"/>
      <point x="279" y="303" type="curve" smooth="yes"/>
    </contour>
  </outline>
</glyph>
<glyph name="uni028F" format="2">
  <advance width="504"/>
  <unicode hex="028F"/>
  <anchor x="197" y="0" name="bottom"/>
  <anchor x="313" y="546" name="top"/>
  <outline>
    <contour>
      <point x="124" y="0" type="line"/>
      <point x="265" y="0" type="line"/>
      <point x="309" y="204" type="line"/>
      <point x="565" y="546" type="line"/>
      <point x="401" y="546" type="line"/>
      <point x="258" y="339" type="line"/>
      <point x="198" y="546" type="line"/>
      <point x="53" y="546" type="line"/>
      <point x="167" y="204" type="line"/>
    </contour>
  </outline>
</glyph>
<glyph name="uni0299" format="2">
  <advance width="493"/>
  <unicode hex="0299"/>
  <anchor x="194" y="0" name="bottom"/>
  <anchor x="310" y="546" name="top"/>
  <outline>
    <contour>
      <point x="23" y="0" type="line"/>
      <point x="222" y="0" type="line" smooth="yes"/>
      <point x="339" y="0"/>
      <point x="429" y="55"/>
      <point x="429" y="180" type="curve" smooth="yes"/>
      <point x="429" y="225"/>
      <point x="407" y="266"/>
      <point x="353" y="282" type="curve"/>
      <point x="353" y="285" type="line"/>
      <point x="424" y="303"/>
      <point x="467" y="347"/>
      <point x="467" y="426" type="curve" smooth="yes"/>
      <point x="467" y="511"/>
      <point x="401" y="546"/>
      <point x="302" y="546" type="curve" smooth="yes"/>
      <point x="138" y="546" type="line"/>
    </contour>
    <contour>
      <point x="158" y="94" type="line"/>
      <point x="187" y="240" type="line"/>
      <point x="255" y="240" type="line" smooth="yes"/>
      <point x="294" y="240"/>
      <point x="313" y="216"/>
      <point x="313" y="178" type="curve" smooth="yes"/>
      <point x="313" y="123"/>
      <point x="279" y="94"/>
      <point x="229" y="94" type="curve" smooth="yes"/>
    </contour>
    <contour>
      <point x="207" y="330" type="line"/>
      <point x="231" y="453" type="line"/>
      <point x="292" y="453" type="line" smooth="yes"/>
      <point x="330" y="453"/>
      <point x="349" y="435"/>
      <point x="349" y="402" type="curve" smooth="yes"/>
      <point x="349" y="351"/>
      <point x="316" y="330"/>
      <point x="266" y="330" type="curve" smooth="yes"/>
    </contour>
  </outline>
</glyph>
<glyph name="uni029F" format="2">
  <advance width="436"/>
  <unicode hex="029F"/>
  <anchor x="163" y="0" name="bottom"/>
  <anchor x="280" y="546" name="top"/>
  <outline>
    <contour>
      <point x="17" y="0" type="line"/>
      <point x="358" y="0" type="line"/>
      <point x="382" y="114" type="line"/>
      <point x="183" y="114" type="line"/>
      <point x="274" y="546" type="line"/>
      <point x="133" y="546" type="line"/>
    </contour>
  </outline>
</glyph>
<glyph name="doublemacroncomb" format="2">
  <unicode hex="035E"/>
  <anchor x="227" y="546" name="_top"/>
  <anchor x="253" y="709" name="top"/>
  <outline>
    <contour>
      <point x="-7" y="606" type="line"/>
      <point x="486" y="606" type="line"/>
      <point x="509" y="709" type="line"/>
      <point x="15" y="709" type="line"/>
    </contour>
  </outline>
</glyph>
<glyph name="tildedoublecomb" format="2">
  <unicode hex="0360"/>
  <anchor x="320" y="546" name="_top"/>
  <anchor x="353" y="760" name="top"/>
  <outline>
    <contour>
      <point x="-30" y="607" type="curve"/>
      <point x="44" y="607" type="line"/>
      <point x="63" y="642"/>
      <point x="101" y="662"/>
      <point x="142" y="662" type="curve" smooth="yes"/>
      <point x="278" y="662"/>
      <point x="384" y="608"/>
      <point x="533" y="608" type="curve" smooth="yes"/>
      <point x="618" y="608"/>
      <point x="698" y="657"/>
      <point x="730" y="760" type="curve"/>
      <point x="656" y="760" type="line"/>
      <point x="636" y="725"/>
      <point x="600" y="706"/>
      <point x="558" y="706" type="curve" smooth="yes"/>
      <point x="417" y="706"/>
      <point x="320" y="760"/>
      <point x="165" y="760" type="curve" smooth="yes"/>
      <point x="82" y="760"/>
      <point x="2" y="711"/>
    </contour>
  </outline>
</glyph>
<glyph name="Gamma" format="2">
  <advance width="482"/>
  <unicode hex="0393"/>
  <anchor x="186" y="0" name="bottom"/>
  <anchor x="370" y="714" name="top"/>
  <outline>
    <contour>
      <point x="23" y="0" type="line"/>
      <point x="170" y="0" type="line"/>
      <point x="294" y="590" type="line"/>
      <point x="528" y="590" type="line"/>
      <point x="555" y="714" type="line"/>
      <point x="174" y="714" type="line"/>
    </contour>
  </outline>
</glyph>
<glyph name="uni0463" format="2">
  <advance width="579"/>
  <unicode hex="0463"/>
  <anchor x="234" y="0" name="bottom"/>
  <anchor x="371" y="644" name="top"/>
  <outline>
    <contour>
      <point x="276" y="-10" type="curve" smooth="yes"/>
      <point x="460" y="-10"/>
      <point x="529" y="92"/>
      <point x="529" y="189" type="curve" smooth="yes"/>
      <point x="529" y="272"/>
      <point x="472" y="335"/>
      <point x="362" y="335" type="curve" smooth="yes"/>
      <point x="323" y="335"/>
      <point x="292" y="331"/>
      <point x="266" y="324" type="curve"/>
      <point x="288" y="434" type="line"/>
      <point x="422" y="434" type="line"/>
      <point x="446" y="546" type="line"/>
      <point x="313" y="546" type="line"/>
      <point x="335" y="644" type="line"/>
      <point x="188" y="644" type="line"/>
      <point x="167" y="546" type="line"/>
      <point x="56" y="546" type="line"/>
      <point x="32" y="434" type="line"/>
      <point x="141" y="434" type="line"/>
      <point x="100" y="240" type="line" smooth="yes"/>
      <point x="92" y="203"/>
      <point x="88" y="173"/>
      <point x="88" y="148" type="curve" smooth="yes"/>
      <point x="88" y="58"/>
      <point x="137" y="-10"/>
    </contour>
    <contour>
      <point x="297" y="93" type="curve" smooth="yes"/>
      <point x="253" y="93"/>
      <point x="233" y="122"/>
      <point x="233" y="154" type="curve" smooth="yes"/>
      <point x="233" y="173"/>
      <point x="237" y="187"/>
      <point x="244" y="223" type="curve"/>
      <point x="270" y="229"/>
      <point x="296" y="232"/>
      <point x="315" y="232" type="curve" smooth="yes"/>
      <point x="363" y="232"/>
      <point x="380" y="208"/>
      <point x="380" y="173" type="curve" smooth="yes"/>
      <point x="380" y="129"/>
      <point x="351" y="93"/>
    </contour>
  </outline>
</glyph>
<glyph name="uni0488" format="2">
  <advance width="940"/>
  <unicode hex="0488"/>
  <outline>
    <contour>
      <point x="639" y="462" type="curve"/>
      <point x="677" y="462" type="line"/>
      <point x="681" y="501"/>
      <point x="704" y="505"/>
      <point x="739" y="505" type="curve"/>
      <point x="770" y="505"/>
      <point x="796" y="499"/>
      <point x="799" y="462" type="curve"/>
      <point x="839" y="462" type="line"/>
      <point x="836" y="518"/>
      <point x="801" y="557"/>
      <point x="739" y="557" type="curve"/>
      <point x="676" y="557"/>
      <point x="642" y="520"/>
    </contour>
    <contour>
      <point x="97" y="-20" type="curve"/>
      <point x="136" y="-20" type="line"/>
      <point x="140" y="19"/>
      <point x="163" y="23"/>
      <point x="198" y="23" type="curve"/>
      <point x="228" y="23"/>
      <point x="255" y="17"/>
      <point x="258" y="-20" type="curve"/>
      <point x="298" y="-20" type="line"/>
      <point x="295" y="36"/>
      <point x="260" y="75"/>
      <point x="198" y="75" type="curve"/>
      <point x="135" y="75"/>
      <point x="101" y="38"/>
    </contour>
    <contour>
      <point x="362" y="-156" type="curve"/>
      <point x="401" y="-156" type="line"/>
      <point x="405" y="-117"/>
      <point x="427" y="-113"/>
      <point x="462" y="-113" type="curve"/>
      <point x="493" y="-113"/>
      <point x="520" y="-119"/>
      <point x="523" y="-156" type="curve"/>
      <point x="563" y="-156" type="line"/>
      <point x="560" y="-100"/>
      <point x="525" y="-61"/>
      <point x="463" y="-61" type="curve"/>
      <point x="400" y="-61"/>
      <point x="366" y="-98"/>
    </contour>
    <contour>
      <point x="20" y="224" type="curve"/>
      <point x="59" y="224" type="line"/>
      <point x="63" y="263"/>
      <point x="85" y="267"/>
      <point x="120" y="267" type="curve"/>
      <point x="151" y="267"/>
      <point x="178" y="261"/>
      <point x="181" y="224" type="curve"/>
      <point x="221" y="224" type="line"/>
      <point x="218" y="280"/>
      <point x="182" y="319"/>
      <point x="121" y="319" type="curve"/>
      <point x="57" y="319"/>
      <point x="23" y="282"/>
    </contour>
    <contour>
      <point x="103" y="462" type="curve"/>
      <point x="141" y="462" type="line"/>
      <point x="145" y="501"/>
      <point x="168" y="505"/>
      <point x="203" y="505" type="curve"/>
      <point x="234" y="505"/>
      <point x="260" y="499"/>
      <point x="263" y="462" type="curve"/>
      <point x="303" y="462" type="line"/>
      <point x="300" y="518"/>
      <point x="265" y="557"/>
      <point x="203" y="557" type="curve"/>
      <point x="140" y="557"/>
      <point x="106" y="520"/>
    </contour>
    <contour>
      <point x="633" y="-20" type="curve"/>
      <point x="672" y="-20" type="line"/>
      <point x="676" y="19"/>
      <point x="699" y="23"/>
      <point x="734" y="23" type="curve"/>
      <point x="765" y="23"/>
      <point x="791" y="17"/>
      <point x="794" y="-20" type="curve"/>
      <point x="834" y="-20" type="line"/>
      <point x="831" y="36"/>
      <point x="796" y="75"/>
      <point x="734" y="75" type="curve"/>
      <point x="671" y="75"/>
      <point x="637" y="38"/>
    </contour>
    <contour>
      <point x="721" y="224" type="curve"/>
      <point x="760" y="224" type="line"/>
      <point x="763" y="263"/>
      <point x="786" y="267"/>
      <point x="821" y="267" type="curve"/>
      <point x="852" y="267"/>
      <point x="878" y="261"/>
      <point x="881" y="224" type="curve"/>
      <point x="922" y="224" type="line"/>
      <point x="919" y="280"/>
      <point x="883" y="319"/>
      <point x="821" y="319" type="curve"/>
      <point x="758" y="319"/>
      <point x="724" y="282"/>
    </contour>
    <contour>
      <point x="370" y="601" type="curve"/>
      <point x="409" y="601" type="line"/>
      <point x="413" y="640"/>
      <point x="435" y="644"/>
      <point x="470" y="644" type="curve"/>
      <point x="501" y="644"/>
      <point x="528" y="638"/>
      <point x="531" y="601" type="curve"/>
      <point x="571" y="601" type="line"/>
      <point x="568" y="657"/>
      <point x="533" y="696"/>
      <point x="471" y="696" type="curve"/>
      <point x="408" y="696"/>
      <point x="374" y="659"/>
    </contour>
  </outline>
</glyph>
<glyph name="uni1AB9" format="2">
  <unicode hex="1AB9"/>
  <anchor x="-34" y="90" name="_bottom"/>
  <anchor x="-74" y="-240" name="bottom"/>
  <outline>
    <contour>
      <point x="-199" y="-240" type="line"/>
      <point x="-118" y="-240" type="line"/>
      <point x="51" y="40" type="line"/>
      <point x="-29" y="40" type="line"/>
    </contour>
  </outline>
</glyph>
<glyph name="uni1ABA" format="2">
  <unicode hex="1ABA"/>
  <anchor x="-26" y="90" name="_bottom"/>
  <anchor x="-66" y="-241" name="bottom"/>
  <outline>
    <contour>
      <point x="-153" y="-196" type="line"/>
      <point x="-108" y="-196" type="line"/>
      <point x="31" y="40" type="line"/>
      <point x="-13" y="40" type="line"/>
    </contour>
    <contour>
      <point x="-126" y="-241" type="curve" smooth="yes"/>
      <point x="-79" y="-241"/>
      <point x="-48" y="-210"/>
      <point x="-48" y="-166" type="curve" smooth="yes"/>
      <point x="-48" y="-133"/>
      <point x="-71" y="-112"/>
      <point x="-105" y="-112" type="curve" smooth="yes"/>
      <point x="-159" y="-112"/>
      <point x="-184" y="-150"/>
      <point x="-184" y="-189" type="curve" smooth="yes"/>
      <point x="-184" y="-215"/>
      <point x="-167" y="-241"/>
    </contour>
  </outline>
</glyph>
<glyph name="uni1D00" format="2">
  <advance width="474"/>
  <unicode hex="1D00"/>
  <anchor x="182" y="0" name="bottom"/>
  <anchor x="299" y="546" name="top"/>
  <outline>
    <contour>
      <point x="-49" y="0" type="line"/>
      <point x="70" y="0" type="line"/>
      <point x="129" y="128" type="line"/>
      <point x="297" y="128" type="line"/>
      <point x="303" y="0" type="line"/>
      <point x="414" y="0" type="line"/>
      <point x="368" y="546" type="line"/>
      <point x="227" y="546" type="line"/>
    </contour>
    <contour>
      <point x="177" y="223" type="line"/>
      <point x="247" y="372" type="line" smooth="yes"/>
      <point x="258" y="396"/>
      <point x="272" y="430"/>
      <point x="280" y="456" type="curve"/>
      <point x="282" y="456" type="line"/>
      <point x="282" y="432"/>
      <point x="283" y="401"/>
      <point x="285" y="360" type="curve" smooth="yes"/>
      <point x="293" y="223" type="line"/>
    </contour>
  </outline>
</glyph>
<glyph name="uni1D04" format="2">
  <advance width="469"/>
  <unicode hex="1D04"/>
  <anchor x="179" y="0" name="bottom"/>
  <anchor x="296" y="546" name="top"/>
  <outline>
    <contour>
      <point x="229" y="-8" type="curve" smooth="yes"/>
      <point x="294" y="-8"/>
      <point x="346" y="9"/>
      <point x="374" y="21" type="curve"/>
      <point x="375" y="116" type="line"/>
      <point x="334" y="100"/>
      <point x="292" y="88"/>
      <point x="253" y="88" type="curve" smooth="yes"/>
      <point x="184" y="88"/>
      <point x="155" y="128"/>
      <point x="155" y="210" type="curve" smooth="yes"/>
      <point x="155" y="318"/>
      <point x="205" y="462"/>
      <point x="321" y="462" type="curve" smooth="yes"/>
      <point x="365" y="462"/>
      <point x="399" y="446"/>
      <point x="433" y="427" type="curve"/>
      <point x="478" y="518" type="line"/>
      <point x="432" y="544"/>
      <point x="390" y="556"/>
      <point x="322" y="556" type="curve" smooth="yes"/>
      <point x="125" y="556"/>
      <point x="39" y="365"/>
      <point x="39" y="205" type="curve" smooth="yes"/>
      <point x="39" y="75"/>
      <point x="103" y="-8"/>
    </contour>
  </outline>
</glyph>
<glyph name="uni1D05" format="2">
  <advance width="535"/>
  <unicode hex="1D05"/>
  <anchor x="213" y="0" name="bottom"/>
  <anchor x="329" y="546" name="top"/>
  <outline>
    <contour>
      <point x="24" y="0" type="line"/>
      <point x="189" y="0" type="line" smooth="yes"/>
      <point x="399" y="0"/>
      <point x="496" y="134"/>
      <point x="496" y="332" type="curve" smooth="yes"/>
      <point x="496" y="475"/>
      <point x="419" y="546"/>
      <point x="281" y="546" type="curve" smooth="yes"/>
      <point x="139" y="546" type="line"/>
    </contour>
    <contour>
      <point x="159" y="94" type="line"/>
      <point x="232" y="453" type="line"/>
      <point x="270" y="453" type="line" smooth="yes"/>
      <point x="339" y="453"/>
      <point x="380" y="416"/>
      <point x="380" y="327" type="curve" smooth="yes"/>
      <point x="380" y="209"/>
      <point x="335" y="94"/>
      <point x="195" y="94" type="curve" smooth="yes"/>
    </contour>
  </outline>
</glyph>
<glyph name="uni1D07" format="2">
  <advance width="421"/>
  <unicode hex="1D07"/>
  <anchor x="155" y="0" name="bottom"/>
  <anchor x="271" y="546" name="top"/>
  <outline>
    <contour>
      <point x="24" y="0" type="line"/>
      <point x="319" y="0" type="line"/>
      <point x="339" y="94" type="line"/>
      <point x="159" y="94" type="line"/>
      <point x="187" y="238" type="line"/>
      <point x="355" y="238" type="line"/>
      <point x="376" y="331" type="line"/>
      <point x="208" y="331" type="line"/>
      <point x="232" y="453" type="line"/>
      <point x="412" y="453" type="line"/>
      <point x="433" y="546" type="line"/>
      <point x="139" y="546" type="line"/>
    </contour>
  </outline>
</glyph>
<glyph name="uni1D0A" format="2">
  <advance width="280"/>
  <unicode hex="1D0A"/>
  <anchor x="50" y="-158" name="bottom"/>
  <anchor x="201" y="546" name="top"/>
  <outline>
    <contour>
      <point x="-43" y="-158" type="curve" smooth="yes"/>
      <point x="64" y="-158"/>
      <point x="122" y="-109"/>
      <point x="149" y="14" type="curve" smooth="yes"/>
      <point x="263" y="546" type="line"/>
      <point x="148" y="546" type="line"/>
      <point x="39" y="30" type="line" smooth="yes"/>
      <point x="25" y="-34"/>
      <point x="-3" y="-62"/>
      <point x="-50" y="-62" type="curve" smooth="yes"/>
      <point x="-75" y="-62"/>
      <point x="-93" y="-59"/>
      <point x="-110" y="-55" type="curve"/>
      <point x="-110" y="-148" type="line"/>
      <point x="-92" y="-153"/>
      <point x="-73" y="-158"/>
    </contour>
  </outline>
</glyph>
<glyph name="uni1D0B" format="2">
  <advance width="473"/>
  <unicode hex="1D0B"/>
  <anchor x="181" y="0" name="bottom"/>
  <anchor x="297" y="546" name="top"/>
  <outline>
    <contour>
      <point x="24" y="0" type="line"/>
      <point x="138" y="0" type="line"/>
      <point x="179" y="202" type="line"/>
      <point x="222" y="227" type="line"/>
      <point x="291" y="0" type="line"/>
      <point x="418" y="0" type="line"/>
      <point x="320" y="289" type="line"/>
      <point x="532" y="546" type="line"/>
      <point x="397" y="546" type="line"/>
      <point x="252" y="363" type="line" smooth="yes"/>
      <point x="232" y="338"/>
      <point x="214" y="313"/>
      <point x="197" y="287" type="curve"/>
      <point x="254" y="546" type="line"/>
      <point x="140" y="546" type="line"/>
    </contour>
  </outline>
</glyph>
<glyph name="uni1D0D" format="2">
  <advance width="682"/>
  <unicode hex="1D0D"/>
  <anchor x="286" y="0" name="bottom"/>
  <anchor x="402" y="546" name="top"/>
  <outline>
    <contour>
      <point x="24" y="0" type="line"/>
      <point x="126" y="0" type="line"/>
      <point x="179" y="259" type="line" smooth="yes"/>
      <point x="191" y="321"/>
      <point x="204" y="393"/>
      <point x="208" y="425" type="curve"/>
      <point x="211" y="425" type="line"/>
      <point x="224" y="0" type="line"/>
      <point x="330" y="0" type="line"/>
      <point x="532" y="425" type="line"/>
      <point x="535" y="425" type="line"/>
      <point x="523" y="381"/>
      <point x="505" y="314"/>
      <point x="495" y="264" type="curve" smooth="yes"/>
      <point x="442" y="0" type="line"/>
      <point x="545" y="0" type="line"/>
      <point x="662" y="546" type="line"/>
      <point x="504" y="546" type="line"/>
      <point x="308" y="135" type="line"/>
      <point x="305" y="135" type="line"/>
      <point x="291" y="546" type="line"/>
      <point x="140" y="546" type="line"/>
    </contour>
  </outline>
</glyph>
<glyph name="uni1D0F" format="2">
  <advance width="556"/>
  <unicode hex="1D0F"/>
  <anchor x="224" y="0" name="bottom"/>
  <anchor x="340" y="546" name="top"/>
  <outline>
    <contour>
      <point x="242" y="-8" type="curve" smooth="yes"/>
      <point x="427" y="-8"/>
      <point x="510" y="175"/>
      <point x="510" y="349" type="curve" smooth="yes"/>
      <point x="510" y="480"/>
      <point x="433" y="554"/>
      <point x="311" y="554" type="curve" smooth="yes"/>
      <point x="126" y="554"/>
      <point x="41" y="368"/>
      <point x="41" y="198" type="curve" smooth="yes"/>
      <point x="41" y="74"/>
      <point x="107" y="-8"/>
    </contour>
    <contour>
      <point x="242" y="88" type="curve" smooth="yes"/>
      <point x="188" y="88"/>
      <point x="157" y="125"/>
      <point x="157" y="198" type="curve" smooth="yes"/>
      <point x="157" y="339"/>
      <point x="223" y="460"/>
      <point x="311" y="460" type="curve" smooth="yes"/>
      <point x="366" y="460"/>
      <point x="394" y="417"/>
      <point x="394" y="350" type="curve" smooth="yes"/>
      <point x="394" y="192"/>
      <point x="324" y="88"/>
    </contour>
  </outline>
</glyph>
<glyph name="uni1D18" format="2">
  <advance width="468"/>
  <unicode hex="1D18"/>
  <anchor x="178" y="0" name="bottom"/>
  <anchor x="295" y="546" name="top"/>
  <outline>
    <contour>
      <point x="24" y="0" type="line"/>
      <point x="138" y="0" type="line"/>
      <point x="178" y="196" type="line"/>
      <point x="222" y="196" type="line" smooth="yes"/>
      <point x="350" y="196"/>
      <point x="451" y="259"/>
      <point x="451" y="390" type="curve" smooth="yes"/>
      <point x="451" y="483"/>
      <point x="403" y="546"/>
      <point x="275" y="546" type="curve" smooth="yes"/>
      <point x="139" y="546" type="line"/>
    </contour>
    <contour>
      <point x="199" y="289" type="line"/>
      <point x="232" y="453" type="line"/>
      <point x="271" y="453" type="line" smooth="yes"/>
      <point x="314" y="453"/>
      <point x="336" y="431"/>
      <point x="336" y="386" type="curve" smooth="yes"/>
      <point x="336" y="324"/>
      <point x="293" y="289"/>
      <point x="231" y="289" type="curve" smooth="yes"/>
    </contour>
  </outline>
</glyph>
<glyph name="uni1D1C" format="2">
  <advance width="593"/>
  <unicode hex="1D1C"/>
  <anchor x="242" y="0" name="bottom"/>
  <anchor x="358" y="546" name="top"/>
  <outline>
    <contour>
      <point x="252" y="-10" type="curve" smooth="yes"/>
      <point x="423" y="-10"/>
      <point x="487" y="95"/>
      <point x="520" y="249" type="curve" smooth="yes"/>
      <point x="584" y="546" type="line"/>
      <point x="442" y="546" type="line"/>
      <point x="379" y="244" type="line" smooth="yes"/>
      <point x="359" y="149"/>
      <point x="326" y="110"/>
      <point x="270" y="110" type="curve" smooth="yes"/>
      <point x="225" y="110"/>
      <point x="198" y="136"/>
      <point x="198" y="191" type="curve" smooth="yes"/>
      <point x="198" y="207"/>
      <point x="201" y="224"/>
      <point x="205" y="245" type="curve" smooth="yes"/>
      <point x="269" y="546" type="line"/>
      <point x="128" y="546" type="line"/>
      <point x="65" y="250" type="line" smooth="yes"/>
      <point x="59" y="223"/>
      <point x="56" y="198"/>
      <point x="56" y="173" type="curve" smooth="yes"/>
      <point x="56" y="72"/>
      <point x="114" y="-10"/>
    </contour>
  </outline>
</glyph>
<glyph name="uni1D21" format="2">
  <advance width="665"/>
  <unicode hex="1D21"/>
  <anchor x="278" y="0" name="bottom"/>
  <anchor x="394" y="546" name="top"/>
  <outline>
    <contour>
      <point x="73" y="0" type="line"/>
      <point x="200" y="0" type="line"/>
      <point x="312" y="274" type="line" smooth="yes"/>
      <point x="326" y="307"/>
      <point x="340" y="343"/>
      <point x="352" y="383" type="curve"/>
      <point x="355" y="383" type="line"/>
      <point x="353" y="352"/>
      <point x="353" y="306"/>
      <point x="354" y="274" type="curve" smooth="yes"/>
      <point x="358" y="0" type="line"/>
      <point x="488" y="0" type="line"/>
      <point x="722" y="546" type="line"/>
      <point x="608" y="546" type="line"/>
      <point x="489" y="244" type="line" smooth="yes"/>
      <point x="482" y="225"/>
      <point x="456" y="158"/>
      <point x="443" y="116" type="curve"/>
      <point x="440" y="116" type="line"/>
      <point x="444" y="157"/>
      <point x="444" y="219"/>
      <point x="444" y="236" type="curve" smooth="yes"/>
      <point x="440" y="546" type="line"/>
      <point x="340" y="546" type="line"/>
      <point x="208" y="236" type="line" smooth="yes"/>
      <point x="200" y="218"/>
      <point x="177" y="155"/>
      <point x="164" y="116" type="curve"/>
      <point x="161" y="116" type="line"/>
      <point x="165" y="155"/>
      <point x="167" y="223"/>
      <point x="167" y="243" type="curve" smooth="yes"/>
      <point x="168" y="546" type="line"/>
      <point x="61" y="546" type="line"/>
    </contour>
  </outline>
</glyph>
<glyph name="uni1D24" format="2">
  <advance width="529"/>
  <unicode hex="1D24"/>
  <anchor x="208" y="0" name="bottom"/>
  <anchor x="367" y="760" name="top"/>
  <outline>
    <contour>
      <point x="223" y="-9" type="curve" smooth="yes"/>
      <point x="298" y="-9"/>
      <point x="358" y="10"/>
      <point x="437" y="55" type="curve"/>
      <point x="393" y="156" type="line"/>
      <point x="335" y="123"/>
      <point x="294" y="108"/>
      <point x="256" y="108" type="curve" smooth="yes"/>
      <point x="209" y="108"/>
      <point x="179" y="136"/>
      <point x="179" y="177" type="curve" smooth="yes"/>
      <point x="179" y="237"/>
      <point x="239" y="284"/>
      <point x="358" y="320" type="curve"/>
      <point x="369" y="368" type="line"/>
      <point x="487" y="420"/>
      <point x="560" y="486"/>
      <point x="560" y="599" type="curve" smooth="yes"/>
      <point x="560" y="705"/>
      <point x="483" y="765"/>
      <point x="368" y="765" type="curve" smooth="yes"/>
      <point x="294" y="765"/>
      <point x="232" y="747"/>
      <point x="154" y="701" type="curve"/>
      <point x="198" y="597" type="line"/>
      <point x="255" y="630"/>
      <point x="297" y="646"/>
      <point x="336" y="646" type="curve" smooth="yes"/>
      <point x="382" y="646"/>
      <point x="411" y="620"/>
      <point x="411" y="580" type="curve" smooth="yes"/>
      <point x="411" y="519"/>
      <point x="352" y="473"/>
      <point x="233" y="436" type="curve"/>
      <point x="222" y="388" type="line"/>
      <point x="108" y="338"/>
      <point x="31" y="271"/>
      <point x="31" y="159" type="curve" smooth="yes"/>
      <point x="31" y="52"/>
      <point x="107" y="-9"/>
    </contour>
  </outline>
</glyph>
<glyph name="uni1D7A" format="2">
  <advance width="948"/>
  <unicode hex="1D7A"/>
  <anchor x="171" y="0" name="bottom_1"/>
  <anchor x="605" y="0" name="bottom_2"/>
  <anchor x="158" y="273" name="center_1"/>
  <anchor x="662" y="273" name="center_2"/>
  <anchor x="250" y="662" name="top_1"/>
  <anchor x="620" y="760" name="top_2"/>
  <anchor x="461" y="662" name="topright_1"/>
  <anchor x="969" y="760" name="topright_2"/>
  <outline>
    <contour>
      <point x="17" y="-75" type="line"/>
      <point x="131" y="-75" type="line"/>
      <point x="936" y="760" type="line"/>
      <point x="821" y="760" type="line"/>
    </contour>
    <component base="t"/>
    <component base="h" xOffset="371"/>
  </outline>
</glyph>
<glyph name="uni1FBD" format="2">
  <advance width="255"/>
  <unicode hex="1FBD"/>
  <anchor x="197" y="545" name="_top"/>
  <outline>
    <contour>
      <point x="144" y="595" type="line"/>
      <point x="226" y="595"/>
      <point x="291" y="636"/>
      <point x="291" y="719" type="curve" smooth="yes"/>
      <point x="291" y="752"/>
      <point x="270" y="782"/>
      <point x="227" y="782" type="curve"/>
      <point x="192" y="782"/>
      <point x="168" y="757"/>
      <point x="168" y="725" type="curve" smooth="yes"/>
      <point x="168" y="697"/>
      <point x="187" y="682"/>
      <point x="218" y="676" type="curve"/>
      <point x="213" y="654"/>
      <point x="190" y="641"/>
      <point x="153" y="637" type="curve"/>
    </contour>
  </outline>
</glyph>
<glyph name="uni1FFD" format="2">
  <advance width="552"/>
  <unicode hex="1FFD"/>
  <anchor x="321" y="546" name="_top"/>
  <anchor x="387" y="766" name="top"/>
  <outline>
    <contour>
      <point x="290" y="606" type="line"/>
      <point x="358" y="606" type="line"/>
      <point x="398" y="649"/>
      <point x="448" y="711"/>
      <point x="478" y="756" type="curve"/>
      <point x="479" y="766" type="line"/>
      <point x="352" y="766" type="line"/>
      <point x="336" y="723"/>
      <point x="311" y="660"/>
      <point x="290" y="619" type="curve"/>
    </contour>
  </outline>
</glyph>
<glyph name="plussuperior" format="2">
  <advance width="359"/>
  <unicode hex="207A"/>
  <outline>
    <contour>
      <point x="180" y="304" type="line"/>
      <point x="259" y="304" type="line"/>
      <point x="259" y="414" type="line"/>
      <point x="364" y="414" type="line"/>
      <point x="364" y="482" type="line"/>
      <point x="259" y="482" type="line"/>
      <point x="259" y="593" type="line"/>
      <point x="180" y="593" type="line"/>
      <point x="180" y="482" type="line"/>
      <point x="75" y="482" type="line"/>
      <point x="75" y="414" type="line"/>
      <point x="180" y="414" type="line"/>
    </contour>
  </outline>
</glyph>
<glyph name="equalsuperior" format="2">
  <advance width="359"/>
  <unicode hex="207C"/>
  <outline>
    <contour>
      <point x="75" y="472" type="line"/>
      <point x="364" y="472" type="line"/>
      <point x="364" y="540" type="line"/>
      <point x="75" y="540" type="line"/>
    </contour>
    <contour>
      <point x="75" y="355" type="line"/>
      <point x="364" y="355" type="line"/>
      <point x="364" y="423" type="line"/>
      <point x="75" y="423" type="line"/>
    </contour>
  </outline>
</glyph>
<glyph name="parenrightsuperior" format="2">
  <advance width="222"/>
  <unicode hex="207E"/>
  <outline>
    <contour>
      <point x="10" y="221" type="curve"/>
      <point x="92" y="221" type="line"/>
      <point x="190" y="324"/>
      <point x="243" y="438"/>
      <point x="244" y="582" type="curve"/>
      <point x="245" y="649"/>
      <point x="231" y="713"/>
      <point x="201" y="767" type="curve"/>
      <point x="128" y="767" type="line"/>
      <point x="149" y="712"/>
      <point x="162" y="649"/>
      <point x="161" y="586" type="curve"/>
      <point x="160" y="436"/>
      <point x="97" y="318"/>
    </contour>
  </outline>
</glyph>
<glyph name="uni20A9" format="2">
  <advance width="698"/>
  <unicode hex="20A9"/>
  <outline>
    <contour>
      <point x="68" y="0" type="line"/>
      <point x="207" y="0" type="line"/>
      <point x="299" y="247" type="line"/>
      <point x="381" y="247" type="line"/>
      <point x="370" y="0" type="line"/>
      <point x="506" y="0" type="line"/>
      <point x="595" y="247" type="line"/>
      <point x="675" y="247" type="line"/>
      <point x="691" y="321" type="line"/>
      <point x="623" y="321" type="line"/>
      <point x="648" y="393" type="line"/>
      <point x="706" y="393" type="line"/>
      <point x="722" y="467" type="line"/>
      <point x="676" y="467" type="line"/>
      <point x="765" y="714" type="line"/>
      <point x="651" y="714" type="line"/>
      <point x="565" y="467" type="line"/>
      <point x="484" y="467" type="line"/>
      <point x="499" y="714" type="line"/>
      <point x="376" y="714" type="line"/>
      <point x="284" y="467" type="line"/>
      <point x="203" y="467" type="line"/>
      <point x="224" y="714" type="line"/>
      <point x="112" y="714" type="line"/>
      <point x="98" y="467" type="line"/>
      <point x="53" y="467" type="line"/>
      <point x="37" y="393" type="line"/>
      <point x="92" y="393" type="line"/>
      <point x="88" y="321" type="line"/>
      <point x="22" y="321" type="line"/>
      <point x="6" y="247" type="line"/>
      <point x="83" y="247" type="line"/>
    </contour>
    <contour>
      <point x="172" y="147" type="line"/>
      <point x="184" y="247" type="line"/>
      <point x="205" y="247" type="line"/>
    </contour>
    <contour>
      <point x="191" y="321" type="line"/>
      <point x="197" y="393" type="line"/>
      <point x="256" y="393" type="line"/>
      <point x="231" y="321" type="line"/>
    </contour>
    <contour>
      <point x="462" y="147" type="line"/>
      <point x="471" y="247" type="line"/>
      <point x="492" y="247" type="line"/>
    </contour>
    <contour>
      <point x="328" y="321" type="line"/>
      <point x="353" y="393" type="line"/>
      <point x="388" y="393" type="line"/>
      <point x="384" y="321" type="line"/>
    </contour>
    <contour>
      <point x="477" y="321" type="line"/>
      <point x="481" y="393" type="line"/>
      <point x="540" y="393" type="line"/>
      <point x="516" y="321" type="line"/>
    </contour>
    <contour>
      <point x="378" y="467" type="line"/>
      <point x="406" y="559" type="line"/>
      <point x="396" y="467" type="line"/>
    </contour>
  </outline>
</glyph>
<glyph name="versicle" format="2">
  <advance width="565"/>
  <unicode hex="2123"/>
  <anchor x="220" y="0" name="bottom"/>
  <anchor x="360" y="714" name="top"/>
  <anchor x="643" y="714" name="topright"/>
  <outline>
    <contour>
      <point x="96" y="-146" type="line"/>
      <point x="159" y="-146" type="line"/>
      <point x="436" y="791" type="line"/>
      <point x="163" y="877" type="line"/>
      <point x="142" y="816" type="line"/>
      <point x="359" y="752" type="line"/>
    </contour>
    <component base="V"/>
  </outline>
</glyph>
<glyph name="enotch" format="2">
  <advance width="675"/>
  <unicode hex="2C78"/>
  <anchor x="245" y="0" name="bottom"/>
  <anchor x="343" y="546" name="top"/>
  <anchor x="575" y="546" name="topright"/>
  <outline>
    <contour>
      <point x="496" y="-10" type="curve" smooth="yes"/>
      <point x="608" y="-10"/>
      <point x="630" y="88"/>
      <point x="630" y="167" type="curve" smooth="yes"/>
      <point x="630" y="177"/>
      <point x="629" y="192"/>
      <point x="628" y="201" type="curve"/>
      <point x="535" y="201" type="line"/>
      <point x="537" y="193"/>
      <point x="537" y="181"/>
      <point x="537" y="172" type="curve" smooth="yes"/>
      <point x="537" y="114"/>
      <point x="513" y="90"/>
      <point x="477" y="90" type="curve" smooth="yes"/>
      <point x="446" y="90"/>
      <point x="429" y="113"/>
      <point x="430" y="141" type="curve"/>
      <point x="408" y="29" type="line"/>
      <point x="424" y="10"/>
      <point x="451" y="-10"/>
    </contour>
    <component base="e"/>
  </outline>
</glyph>
<glyph name="uni2DF5" format="2">
  <unicode hex="2DF5"/>
  <anchor x="58" y="546" name="_top"/>
  <anchor x="119" y="838" name="top"/>
  <anchor x="336" y="838" name="topright"/>
  <outline>
    <contour>
      <point x="-6" y="616" type="curve" smooth="yes"/>
      <point x="24" y="616"/>
      <point x="46" y="622"/>
      <point x="66" y="632" type="curve"/>
      <point x="67" y="680" type="line"/>
      <point x="47" y="670"/>
      <point x="30" y="664"/>
      <point x="9" y="664" type="curve" smooth="yes"/>
      <point x="-12" y="664"/>
      <point x="-25" y="676"/>
      <point x="-25" y="700" type="curve" smooth="yes"/>
      <point x="-25" y="745"/>
      <point x="-3" y="793"/>
      <point x="51" y="793" type="curve" smooth="yes"/>
      <point x="163" y="793" type="line"/>
      <point x="122" y="620" type="line"/>
      <point x="186" y="620" type="line"/>
      <point x="227" y="793" type="line"/>
      <point x="295" y="793" type="line"/>
      <point x="306" y="838" type="line"/>
      <point x="48" y="838" type="line" smooth="yes"/>
      <point x="-45" y="838"/>
      <point x="-92" y="772"/>
      <point x="-92" y="695" type="curve" smooth="yes"/>
      <point x="-92" y="638"/>
      <point x="-53" y="616"/>
    </contour>
  </outline>
</glyph>
<glyph name="uniA655" format="2">
  <advance width="828"/>
  <unicode hex="A655"/>
  <anchor x="222" y="0" name="bottom"/>
  <anchor x="280" y="273" name="center"/>
  <anchor x="338" y="546" name="top"/>
  <anchor x="598" y="546" name="topright"/>
  <outline>
    <contour>
      <point x="458" y="336" type="line"/>
      <point x="434" y="225" type="line"/>
      <point x="603" y="225" type="line"/>
      <point x="556" y="0" type="line"/>
      <point x="703" y="0" type="line"/>
      <point x="819" y="546" type="line"/>
      <point x="672" y="546" type="line"/>
      <point x="628" y="336" type="line"/>
    </contour>
    <component base="o"/>
  </outline>
</glyph>
<glyph name="uniA657" format="2">
  <advance width="837"/>
  <unicode hex="A657"/>
  <anchor x="402" y="0" name="bottom"/>
  <anchor x="471" y="546" name="top"/>
  <outline>
    <contour>
      <point x="222" y="0" type="line"/>
      <point x="366" y="0" type="line"/>
      <point x="471" y="206" type="line"/>
      <point x="628" y="206" type="line"/>
      <point x="648" y="0" type="line"/>
      <point x="784" y="0" type="line"/>
      <point x="707" y="546" type="line"/>
      <point x="531" y="546" type="line"/>
    </contour>
    <contour>
      <point x="16" y="0" type="line"/>
      <point x="164" y="0" type="line"/>
      <point x="208" y="206" type="line"/>
      <point x="426" y="206" type="line"/>
      <point x="446" y="317" type="line"/>
      <point x="233" y="317" type="line"/>
      <point x="281" y="546" type="line"/>
      <point x="133" y="546" type="line"/>
    </contour>
    <contour>
      <point x="524" y="308" type="line"/>
      <point x="545" y="347" type="line" smooth="yes"/>
      <point x="552" y="359"/>
      <point x="586" y="428"/>
      <point x="601" y="460" type="curve"/>
      <point x="605" y="460" type="line"/>
      <point x="605" y="429"/>
      <point x="613" y="365"/>
      <point x="614" y="350" type="curve" smooth="yes"/>
      <point x="618" y="308" type="line"/>
    </contour>
  </outline>
</glyph>
<glyph name="uniA665" format="2">
  <advance width="761"/>
  <unicode hex="A665"/>
  <anchor x="242" y="0" name="bottom"/>
  <anchor x="358" y="546" name="top"/>
  <outline>
    <contour>
      <point x="320" y="0" type="line"/>
      <point x="467" y="0" type="line"/>
      <point x="557" y="425" type="line"/>
      <point x="771" y="425" type="line"/>
      <point x="797" y="546" type="line"/>
      <point x="436" y="546" type="line"/>
    </contour>
    <component base="afii10077"/>
  </outline>
</glyph>
<glyph name="uniA671" format="2">
  <unicode hex="A671"/>
  <outline>
    <contour>
      <point x="-273" y="586" type="line"/>
      <point x="-177" y="586" type="line"/>
      <point x="-155" y="694" type="line"/>
      <point x="371" y="694" type="line"/>
      <point x="349" y="586" type="line"/>
      <point x="444" y="586" type="line"/>
      <point x="494" y="822" type="line"/>
      <point x="-222" y="822" type="line"/>
    </contour>
    <contour>
      <point x="-461" y="-299" type="line"/>
      <point x="256" y="-299" type="line"/>
      <point x="306" y="-63" type="line"/>
      <point x="211" y="-63" type="line"/>
      <point x="189" y="-171" type="line"/>
      <point x="-338" y="-171" type="line"/>
      <point x="-315" y="-63" type="line"/>
      <point x="-411" y="-63" type="line"/>
    </contour>
  </outline>
</glyph>
<glyph name="uniA672" format="2">
  <unicode hex="A672"/>
  <outline>
    <contour>
      <point x="46" y="581" type="line"/>
      <point x="113" y="581" type="line"/>
      <point x="139" y="706" type="line"/>
      <point x="243" y="706" type="line"/>
      <point x="259" y="778" type="line"/>
      <point x="155" y="778" type="line"/>
      <point x="181" y="905" type="line"/>
      <point x="115" y="905" type="line"/>
      <point x="88" y="778" type="line"/>
      <point x="-15" y="778" type="line"/>
      <point x="-30" y="706" type="line"/>
      <point x="73" y="706" type="line"/>
    </contour>
    <contour>
      <point x="-314" y="-384" type="line"/>
      <point x="-246" y="-384" type="line"/>
      <point x="-177" y="-61" type="line"/>
      <point x="-245" y="-61" type="line"/>
    </contour>
    <contour>
      <point x="-556" y="49" type="line"/>
      <point x="-283" y="49" type="line"/>
      <point x="-267" y="121" type="line"/>
      <point x="-540" y="121" type="line"/>
    </contour>
    <contour>
      <point x="-160" y="-384" type="line"/>
      <point x="-92" y="-384" type="line"/>
      <point x="-23" y="-61" type="line"/>
      <point x="-91" y="-61" type="line"/>
    </contour>
    <contour>
      <point x="-5" y="-384" type="line"/>
      <point x="63" y="-384" type="line"/>
      <point x="132" y="-61" type="line"/>
      <point x="64" y="-61" type="line"/>
    </contour>
    <contour>
      <point x="-517" y="234" type="line"/>
      <point x="-244" y="234" type="line"/>
      <point x="-227" y="306" type="line"/>
      <point x="-500" y="306" type="line"/>
    </contour>
    <contour>
      <point x="-477" y="419" type="line"/>
      <point x="-204" y="419" type="line"/>
      <point x="-188" y="491" type="line"/>
      <point x="-461" y="491" type="line"/>
    </contour>
    <contour>
      <point x="218" y="49" type="line"/>
      <point x="492" y="49" type="line"/>
      <point x="508" y="121" type="line"/>
      <point x="234" y="121" type="line"/>
    </contour>
    <contour>
      <point x="257" y="234" type="line"/>
      <point x="531" y="234" type="line"/>
      <point x="548" y="306" type="line"/>
      <point x="274" y="306" type="line"/>
    </contour>
    <contour>
      <point x="297" y="419" type="line"/>
      <point x="571" y="419" type="line"/>
      <point x="587" y="491" type="line"/>
      <point x="313" y="491" type="line"/>
    </contour>
  </outline>
</glyph>
<glyph name="uniA680" format="2">
  <advance width="697"/>
  <unicode hex="A680"/>
  <anchor x="249" y="-208" name="bottom"/>
  <anchor x="488" y="714" name="top"/>
  <outline>
    <contour>
      <point x="274" y="586" type="line"/>
      <point x="401" y="586" type="line"/>
      <point x="472" y="920" type="line"/>
      <point x="345" y="920" type="line"/>
    </contour>
    <component base="afii10021"/>
  </outline>
</glyph>
<glyph name="uniA685" format="2">
  <advance width="1064"/>
  <unicode hex="A685"/>
  <anchor x="188" y="0" name="bottom_1"/>
  <anchor x="740" y="0" name="bottom_2"/>
  <anchor x="295" y="546" name="top_1"/>
  <anchor x="868" y="546" name="top_2"/>
  <outline>
    <contour>
      <point x="181" y="233" type="line"/>
      <point x="657" y="233" type="line"/>
      <point x="657" y="336" type="line"/>
      <point x="181" y="336" type="line"/>
    </contour>
    <component base="afii10073"/>
    <component base="afii10076" xOffset="517"/>
  </outline>
</glyph>
<glyph name="uniA69E" format="2">
  <unicode hex="A69E"/>
  <outline>
    <contour>
      <point x="-73" y="127" type="line"/>
      <point x="18" y="127" type="line"/>
      <point x="48" y="272" type="line"/>
      <point x="220" y="289"/>
      <point x="256" y="399"/>
      <point x="256" y="481" type="curve" smooth="yes"/>
      <point x="256" y="556"/>
      <point x="210" y="610"/>
      <point x="123" y="622" type="curve"/>
      <point x="150" y="754" type="line"/>
      <point x="61" y="754" type="line"/>
      <point x="34" y="622" type="line"/>
      <point x="-118" y="613"/>
      <point x="-178" y="506"/>
      <point x="-178" y="415" type="curve" smooth="yes"/>
      <point x="-178" y="341"/>
      <point x="-130" y="285"/>
      <point x="-41" y="275" type="curve"/>
    </contour>
    <contour>
      <point x="-25" y="346" type="line"/>
      <point x="-58" y="351"/>
      <point x="-74" y="381"/>
      <point x="-74" y="423" type="curve" smooth="yes"/>
      <point x="-74" y="470"/>
      <point x="-53" y="546"/>
      <point x="18" y="551" type="curve"/>
    </contour>
    <contour>
      <point x="64" y="346" type="curve"/>
      <point x="107" y="550" type="line"/>
      <point x="138" y="543"/>
      <point x="154" y="515"/>
      <point x="154" y="478" type="curve" smooth="yes"/>
      <point x="154" y="434"/>
      <point x="137" y="357"/>
    </contour>
  </outline>
</glyph>
<glyph name="uniA731" format="2">
  <advance width="417"/>
  <unicode hex="A731"/>
  <outline>
    <contour>
      <point x="146" y="-10" type="curve" smooth="yes"/>
      <point x="260" y="-10"/>
      <point x="345" y="46"/>
      <point x="345" y="163" type="curve" smooth="yes"/>
      <point x="345" y="227"/>
      <point x="318" y="272"/>
      <point x="260" y="312" type="curve" smooth="yes"/>
      <point x="220" y="340"/>
      <point x="197" y="358"/>
      <point x="197" y="397" type="curve" smooth="yes"/>
      <point x="197" y="436"/>
      <point x="222" y="460"/>
      <point x="261" y="460" type="curve" smooth="yes"/>
      <point x="294" y="460"/>
      <point x="326" y="450"/>
      <point x="366" y="432" type="curve"/>
      <point x="408" y="520" type="line"/>
      <point x="364" y="545"/>
      <point x="317" y="557"/>
      <point x="262" y="557" type="curve" smooth="yes"/>
      <point x="148" y="557"/>
      <point x="77" y="486"/>
      <point x="77" y="387" type="curve" smooth="yes"/>
      <point x="77" y="313"/>
      <point x="123" y="269"/>
      <point x="166" y="236" type="curve" smooth="yes"/>
      <point x="203" y="208"/>
      <point x="226" y="189"/>
      <point x="226" y="148" type="curve" smooth="yes"/>
      <point x="226" y="106"/>
      <point x="194" y="87"/>
      <point x="147" y="87" type="curve" smooth="yes"/>
      <point x="101" y="87"/>
      <point x="58" y="102"/>
      <point x="12" y="128" type="curve"/>
      <point x="11" y="24" type="line"/>
      <point x="42" y="3"/>
      <point x="92" y="-10"/>
    </contour>
  </outline>
</glyph>
<glyph name="uniA741" format="2">
  <advance width="568"/>
  <unicode hex="A741"/>
  <anchor x="247" y="0" name="bottom"/>
  <anchor x="251" y="760" name="top"/>
  <anchor x="665" y="760" name="topright"/>
  <outline>
    <contour>
      <point x="64" y="583" type="line"/>
      <point x="414" y="583" type="line"/>
      <point x="435" y="681" type="line"/>
      <point x="85" y="681" type="line"/>
    </contour>
    <component base="k"/>
  </outline>
</glyph>
<glyph name="uniA748" format="2">
  <advance width="494"/>
  <unicode hex="A748"/>
  <anchor x="205" y="0" name="bottom"/>
  <anchor x="165" y="357" name="center"/>
  <anchor x="244" y="714" name="top"/>
  <anchor x="408" y="714" name="topright"/>
  <outline>
    <contour>
      <point x="64" y="523" type="line"/>
      <point x="375" y="523" type="line"/>
      <point x="402" y="649" type="line"/>
      <point x="91" y="649" type="line"/>
    </contour>
    <component base="L"/>
  </outline>
</glyph>
<glyph name="uniA749" format="2">
  <advance width="297"/>
  <unicode hex="A749"/>
  <anchor x="86" y="0" name="bottom"/>
  <anchor x="144" y="273" name="center"/>
  <anchor x="247" y="760" name="top"/>
  <anchor x="370" y="760" name="topright"/>
  <outline>
    <contour>
      <point x="82" y="583" type="line"/>
      <point x="348" y="583" type="line"/>
      <point x="369" y="681" type="line"/>
      <point x="103" y="681" type="line"/>
    </contour>
    <component base="l"/>
  </outline>
</glyph>
<glyph name="uniA74A" format="2">
  <advance width="695"/>
  <unicode hex="A74A"/>
  <anchor x="316" y="0" name="bottom"/>
  <anchor x="380" y="357" name="center"/>
  <anchor x="453" y="714" name="top"/>
  <anchor x="782" y="714" name="topright"/>
  <outline>
    <contour>
      <point x="23" y="308" type="line"/>
      <point x="718" y="308" type="line"/>
      <point x="742" y="422" type="line"/>
      <point x="47" y="422" type="line"/>
    </contour>
    <component base="O" xOffset="10"/>
  </outline>
</glyph>
<glyph name="uniA757" format="2">
  <advance width="566"/>
  <unicode hex="A757"/>
  <anchor x="315" y="-240" name="bottom"/>
  <anchor x="341" y="546" name="top"/>
  <anchor x="594" y="546" name="topright"/>
  <outline>
    <contour>
      <point x="156" y="-162" type="line"/>
      <point x="494" y="-162" type="line"/>
      <point x="515" y="-64" type="line"/>
      <point x="177" y="-64" type="line"/>
    </contour>
    <component base="q"/>
  </outline>
</glyph>
<glyph name="uniA75C" format="2">
  <advance width="587"/>
  <unicode hex="A75C"/>
  <outline>
    <contour>
      <point x="4" y="137" type="line"/>
      <point x="561" y="137" type="line"/>
      <point x="588" y="264" type="line"/>
      <point x="216" y="264" type="line"/>
      <point x="218" y="269" type="line"/>
      <point x="291" y="334" type="line" smooth="yes"/>
      <point x="402" y="433"/>
      <point x="454" y="485"/>
      <point x="454" y="585" type="curve" smooth="yes"/>
      <point x="454" y="675"/>
      <point x="389" y="725"/>
      <point x="298" y="725" type="curve" smooth="yes"/>
      <point x="207" y="725"/>
      <point x="146" y="689"/>
      <point x="101" y="647" type="curve"/>
      <point x="172" y="548" type="line"/>
      <point x="202" y="576"/>
      <point x="227" y="598"/>
      <point x="256" y="598" type="curve" smooth="yes"/>
      <point x="287" y="598"/>
      <point x="302" y="580"/>
      <point x="302" y="551" type="curve" smooth="yes"/>
      <point x="302" y="505"/>
      <point x="267" y="470"/>
      <point x="159" y="370" type="curve" smooth="yes"/>
      <point x="26" y="247" type="line"/>
    </contour>
    <contour>
      <point x="328" y="0" type="line"/>
      <point x="475" y="0" type="line"/>
      <point x="561" y="400" type="line"/>
      <point x="414" y="400" type="line"/>
    </contour>
  </outline>
</glyph>
<glyph name="uniA75E" format="2">
  <advance width="565"/>
  <unicode hex="A75E"/>
  <anchor x="220" y="0" name="bottom"/>
  <anchor x="360" y="714" name="top"/>
  <anchor x="643" y="714" name="topright"/>
  <outline>
    <contour>
      <point x="24" y="-9" type="line"/>
      <point x="88" y="-9" type="line"/>
      <point x="444" y="723" type="line"/>
      <point x="378" y="723" type="line"/>
    </contour>
    <component base="V"/>
  </outline>
</glyph>
<glyph name="uniA75F" format="2">
  <advance width="492"/>
  <unicode hex="A75F"/>
  <anchor x="188" y="0" name="bottom"/>
  <anchor x="304" y="546" name="top"/>
  <anchor x="530" y="546" name="topright"/>
  <outline>
    <contour>
      <point x="-27" y="-93" type="line"/>
      <point x="38" y="-93" type="line"/>
      <point x="393" y="639" type="line"/>
      <point x="327" y="639" type="line"/>
    </contour>
    <component base="v"/>
  </outline>
</glyph>
<glyph name="uniA764" format="2">
  <advance width="564"/>
  <unicode hex="A764"/>
  <outline>
    <contour>
      <point x="23" y="0" type="line"/>
      <point x="172" y="0" type="line"/>
      <point x="188" y="78" type="line"/>
      <point x="256" y="78" type="line" smooth="yes"/>
      <point x="406" y="78"/>
      <point x="527" y="153"/>
      <point x="527" y="312" type="curve" smooth="yes"/>
      <point x="527" y="424"/>
      <point x="470" y="500"/>
      <point x="319" y="500" type="curve" smooth="yes"/>
      <point x="277" y="500" type="line"/>
      <point x="323" y="714" type="line"/>
      <point x="174" y="714" type="line"/>
    </contour>
    <contour>
      <point x="214" y="192" type="line"/>
      <point x="253" y="386" type="line"/>
      <point x="302" y="386" type="line" smooth="yes"/>
      <point x="353" y="386"/>
      <point x="379" y="361"/>
      <point x="379" y="307" type="curve" smooth="yes"/>
      <point x="379" y="233"/>
      <point x="330" y="192"/>
      <point x="256" y="192" type="curve" smooth="yes"/>
    </contour>
    <contour>
      <point x="71" y="560" type="line"/>
      <point x="383" y="560" type="line"/>
      <point x="405" y="660" type="line"/>
      <point x="93" y="660" type="line"/>
    </contour>
  </outline>
</glyph>
<glyph name="uniA765" format="2">
  <advance width="567"/>
  <unicode hex="A765"/>
  <anchor x="178" y="-240" name="bottom"/>
  <anchor x="390" y="760" name="top"/>
  <outline>
    <contour>
      <point x="48" y="448" type="line"/>
      <point x="461" y="643" type="line"/>
      <point x="482" y="742" type="line"/>
      <point x="68" y="546" type="line"/>
    </contour>
    <component base="thorn"/>
  </outline>
</glyph>
<glyph name="uniA768" format="2">
  <advance width="685"/>
  <unicode hex="A768"/>
  <outline>
    <contour>
      <point x="-82" y="-240" type="line"/>
      <point x="227" y="-240" type="line"/>
      <point x="246" y="-154" type="line"/>
      <point x="173" y="-114" type="line"/>
      <point x="194" y="-10" type="line"/>
      <point x="775" y="714" type="line"/>
      <point x="595" y="714" type="line"/>
      <point x="319" y="339" type="line" smooth="yes"/>
      <point x="290" y="299"/>
      <point x="252" y="234"/>
      <point x="231" y="193" type="curve"/>
      <point x="226" y="194" type="line"/>
      <point x="239" y="241"/>
      <point x="260" y="309"/>
      <point x="269" y="350" type="curve" smooth="yes"/>
      <point x="323" y="588" type="line"/>
      <point x="413" y="628" type="line"/>
      <point x="432" y="714" type="line"/>
      <point x="123" y="714" type="line"/>
      <point x="104" y="628" type="line"/>
      <point x="174" y="588" type="line"/>
      <point x="24" y="-114" type="line"/>
      <point x="-63" y="-154" type="line"/>
    </contour>
  </outline>
</glyph>
<glyph name="uniA772" format="2">
  <advance width="458"/>
  <unicode hex="A772"/>
  <anchor x="86" y="0" name="bottom"/>
  <anchor x="144" y="273" name="center"/>
  <anchor x="247" y="760" name="top"/>
  <anchor x="370" y="760" name="topright"/>
  <outline>
    <contour>
      <point x="93" y="-157" type="line"/>
      <point x="184" y="-157" type="line"/>
      <point x="405" y="270" type="line"/>
      <point x="314" y="270" type="line"/>
    </contour>
    <contour>
      <point x="125" y="0" type="line"/>
      <point x="403" y="0" type="line"/>
      <point x="428" y="115" type="line"/>
      <point x="150" y="115" type="line"/>
    </contour>
    <component base="l"/>
  </outline>
</glyph>
<glyph name="uniA774" format="2">
  <advance width="767"/>
  <unicode hex="A774"/>
  <anchor x="231" y="0" name="bottom"/>
  <anchor x="347" y="546" name="top"/>
  <anchor x="615" y="546" name="topright"/>
  <outline>
    <contour>
      <point x="402" y="-157" type="line"/>
      <point x="493" y="-157" type="line"/>
      <point x="714" y="270" type="line"/>
      <point x="623" y="270" type="line"/>
    </contour>
    <contour>
      <point x="434" y="0" type="line"/>
      <point x="712" y="0" type="line"/>
      <point x="737" y="115" type="line"/>
      <point x="459" y="115" type="line"/>
    </contour>
    <component base="n"/>
  </outline>
</glyph>
<glyph name="uniA7A1" format="2">
  <advance width="594"/>
  <unicode hex="A7A1"/>
  <anchor x="175" y="-240" name="bottom"/>
  <anchor x="342" y="546" name="top"/>
  <anchor x="595" y="546" name="topright"/>
  <outline>
    <contour>
      <point x="-18" y="169" type="line"/>
      <point x="591" y="287" type="line"/>
      <point x="610" y="377" type="line"/>
      <point x="1" y="259" type="line"/>
    </contour>
    <component base="g"/>
  </outline>
</glyph>
<glyph name="uniA7A8" format="2">
  <advance width="507"/>
  <unicode hex="A7A8"/>
  <anchor x="201" y="0" name="bottom"/>
  <anchor x="352" y="714" name="top"/>
  <anchor x="585" y="714" name="topright"/>
  <outline>
    <contour>
      <point x="24" y="301" type="line"/>
      <point x="521" y="375" type="line"/>
      <point x="540" y="465" type="line"/>
      <point x="43" y="391" type="line"/>
    </contour>
    <component base="S"/>
  </outline>
</glyph>
<glyph name="uniA7AA" format="2">
  <advance width="790"/>
  <unicode hex="A7AA"/>
  <anchor x="398" y="0" name="bottom"/>
  <anchor x="474" y="357" name="center"/>
  <anchor x="550" y="714" name="top"/>
  <anchor x="864" y="714" name="topright"/>
  <outline>
    <contour>
      <point x="77" y="487" type="curve"/>
      <point x="182" y="487" type="line"/>
      <point x="182" y="492"/>
      <point x="181" y="503"/>
      <point x="181" y="519" type="curve" smooth="yes"/>
      <point x="181" y="565"/>
      <point x="203" y="594"/>
      <point x="251" y="594" type="curve" smooth="yes"/>
      <point x="353" y="594" type="line"/>
      <point x="377" y="714" type="line"/>
      <point x="276" y="714" type="line" smooth="yes"/>
      <point x="163" y="714"/>
      <point x="73" y="664"/>
      <point x="73" y="541" type="curve" smooth="yes"/>
      <point x="73" y="526"/>
      <point x="75" y="504"/>
    </contour>
    <component base="H" xOffset="122"/>
  </outline>
</glyph>
<glyph name="uniA7AE" format="2">
  <advance width="323"/>
  <unicode hex="A7AE"/>
  <outline>
    <contour>
      <point x="-29" y="0" type="line"/>
      <point x="233" y="0" type="line"/>
      <point x="247" y="66" type="line"/>
      <point x="192" y="96" type="line"/>
      <point x="266" y="450" type="line"/>
      <point x="335" y="480" type="line"/>
      <point x="349" y="546" type="line"/>
      <point x="86" y="546" type="line"/>
      <point x="72" y="480" type="line"/>
      <point x="126" y="450" type="line"/>
      <point x="52" y="96" type="line"/>
      <point x="-15" y="66" type="line"/>
    </contour>
  </outline>
</glyph>
<glyph name="uniA7AF" format="2">
  <advance width="596"/>
  <unicode hex="A7AF"/>
  <anchor x="239" y="0" name="bottom"/>
  <anchor x="360" y="291" name="center"/>
  <anchor x="363" y="582" name="top"/>
  <anchor x="642" y="582" name="topright"/>
  <outline>
    <contour>
      <point x="377" y="80" type="line"/>
      <point x="243" y="54" type="line"/>
      <point x="341" y="-138" type="line"/>
      <point x="502" y="-138" type="line"/>
    </contour>
    <component base="o.sc"/>
  </outline>
</glyph>
<glyph name="uniA7CA" format="2">
  <advance width="455"/>
  <unicode hex="A7CA"/>
  <anchor x="170" y="0" name="bottom"/>
  <anchor x="286" y="546" name="top"/>
  <anchor x="473" y="546" name="topright"/>
  <outline>
    <contour>
      <point x="5" y="225" type="line"/>
      <point x="441" y="225" type="line"/>
      <point x="459" y="310" type="line"/>
      <point x="23" y="310" type="line"/>
    </contour>
    <component base="s"/>
  </outline>
</glyph>
<glyph name="uniAB39" format="2">
  <advance width="428"/>
  <unicode hex="AB39"/>
  <anchor x="151" y="0" name="bottom"/>
  <anchor x="209" y="273" name="center"/>
  <anchor x="312" y="760" name="top"/>
  <anchor x="435" y="760" name="topright"/>
  <outline>
    <contour>
      <point x="237" y="183" type="curve" smooth="yes"/>
      <point x="344" y="183"/>
      <point x="431" y="270"/>
      <point x="431" y="378" type="curve" smooth="yes"/>
      <point x="431" y="487"/>
      <point x="344" y="573"/>
      <point x="237" y="573" type="curve" smooth="yes"/>
      <point x="129" y="573"/>
      <point x="42" y="487"/>
      <point x="42" y="378" type="curve" smooth="yes"/>
      <point x="42" y="270"/>
      <point x="129" y="183"/>
    </contour>
    <contour>
      <point x="237" y="263" type="curve" smooth="yes"/>
      <point x="172" y="263"/>
      <point x="121" y="314"/>
      <point x="121" y="379" type="curve" smooth="yes"/>
      <point x="121" y="443"/>
      <point x="172" y="494"/>
      <point x="237" y="494" type="curve" smooth="yes"/>
      <point x="301" y="494"/>
      <point x="352" y="443"/>
      <point x="352" y="379" type="curve" smooth="yes"/>
      <point x="352" y="314"/>
      <point x="301" y="263"/>
    </contour>
    <component base="l" xOffset="65"/>
  </outline>
</glyph>
<glyph name="uniAB44" format="2">
  <advance width="902"/>
  <unicode hex="AB44"/>
  <anchor x="564" y="0" name="bottom"/>
  <anchor x="622" y="273" name="center"/>
  <anchor x="680" y="546" name="top"/>
  <anchor x="940" y="546" name="topright"/>
  <outline>
    <contour>
      <point x="481" y="-37" type="line"/>
      <point x="850" y="537" type="line"/>
      <point x="786" y="583" type="line"/>
      <point x="413" y="6" type="line"/>
    </contour>
    <component base="uniAB43"/>
  </outline>
</glyph>
<glyph name="uniAB60" format="2">
  <advance width="781"/>
  <unicode hex="AB60"/>
  <outline>
    <contour>
      <point x="497" y="-10" type="curve" smooth="yes"/>
      <point x="660" y="-10"/>
      <point x="731" y="89"/>
      <point x="731" y="192" type="curve" smooth="yes"/>
      <point x="731" y="280"/>
      <point x="672" y="335"/>
      <point x="582" y="335" type="curve" smooth="yes"/>
      <point x="547" y="335"/>
      <point x="516" y="330"/>
      <point x="492" y="324" type="curve"/>
      <point x="540" y="546" type="line"/>
      <point x="392" y="546" type="line"/>
      <point x="326" y="241" type="line" smooth="yes"/>
      <point x="317" y="200"/>
      <point x="315" y="164"/>
      <point x="315" y="147" type="curve" smooth="yes"/>
      <point x="315" y="59"/>
      <point x="359" y="-10"/>
    </contour>
    <contour>
      <point x="16" y="0" type="line"/>
      <point x="163" y="0" type="line"/>
      <point x="279" y="546" type="line"/>
      <point x="132" y="546" type="line"/>
    </contour>
    <contour>
      <point x="512" y="93" type="curve" smooth="yes"/>
      <point x="484" y="93"/>
      <point x="460" y="110"/>
      <point x="460" y="152" type="curve" smooth="yes"/>
      <point x="460" y="177"/>
      <point x="463" y="186"/>
      <point x="471" y="223" type="curve"/>
      <point x="492" y="229"/>
      <point x="511" y="232"/>
      <point x="529" y="232" type="curve" smooth="yes"/>
      <point x="565" y="232"/>
      <point x="583" y="213"/>
      <point x="583" y="175" type="curve" smooth="yes"/>
      <point x="583" y="125"/>
      <point x="554" y="93"/>
    </contour>
  </outline>
</glyph>
<glyph name="uniFE21" format="2">
  <unicode hex="FE21"/>
  <outline>
    <contour>
      <point x="329" y="587" type="curve"/>
      <point x="420" y="587" type="line"/>
      <point x="388" y="717"/>
      <point x="275" y="785"/>
      <point x="84" y="785" type="curve"/>
      <point x="83" y="686" type="line"/>
      <point x="216" y="685"/>
      <point x="292" y="644"/>
    </contour>
  </outline>
</glyph>
<glyph name="uniFE22" format="2">
  <unicode hex="FE22"/>
  <outline>
    <contour>
      <point x="-292" y="607" type="curve"/>
      <point x="-218" y="607" type="line"/>
      <point x="-200" y="642"/>
      <point x="-163" y="662"/>
      <point x="-120" y="662" type="curve" smooth="yes"/>
      <point x="-50" y="662"/>
      <point x="12" y="647"/>
      <point x="83" y="633" type="curve"/>
      <point x="84" y="735" type="line"/>
      <point x="30" y="746"/>
      <point x="-29" y="760"/>
      <point x="-99" y="760" type="curve" smooth="yes"/>
      <point x="-186" y="760"/>
      <point x="-261" y="711"/>
    </contour>
  </outline>
</glyph>
<glyph name="uniFE23" format="2">
  <unicode hex="FE23"/>
  <outline>
    <contour>
      <point x="264" y="608" type="curve" smooth="yes"/>
      <point x="352" y="608"/>
      <point x="428" y="657"/>
      <point x="459" y="760" type="curve"/>
      <point x="385" y="760" type="line"/>
      <point x="366" y="725"/>
      <point x="330" y="706"/>
      <point x="287" y="706" type="curve" smooth="yes"/>
      <point x="215" y="706"/>
      <point x="152" y="721"/>
      <point x="83" y="735" type="curve"/>
      <point x="82" y="633" type="line"/>
      <point x="137" y="621"/>
      <point x="197" y="608"/>
    </contour>
  </outline>
</glyph>
<glyph name="uniFE2E" format="2">
  <unicode hex="FE2E"/>
  <outline>
    <contour>
      <point x="-31" y="560" type="curve" smooth="yes"/>
      <point x="2" y="560"/>
      <point x="19" y="579"/>
      <point x="29" y="606" type="curve"/>
      <point x="228" y="606" type="line"/>
      <point x="229" y="679" type="line"/>
      <point x="-13" y="679" type="line" smooth="yes"/>
      <point x="-56" y="679"/>
      <point x="-79" y="648"/>
      <point x="-79" y="610" type="curve" smooth="yes"/>
      <point x="-79" y="582"/>
      <point x="-63" y="560"/>
    </contour>
  </outline>
</glyph>
<glyph name="uniFE2F" format="2">
  <unicode hex="FE2F"/>
  <outline>
    <contour>
      <point x="-67" y="606" type="line"/>
      <point x="175" y="606" type="line"/>
      <point x="220" y="606"/>
      <point x="240" y="641"/>
      <point x="240" y="679" type="curve" smooth="yes"/>
      <point x="240" y="706"/>
      <point x="226" y="725"/>
      <point x="193" y="725" type="curve" smooth="yes"/>
      <point x="160" y="725"/>
      <point x="142" y="707"/>
      <point x="133" y="679" type="curve"/>
      <point x="-66" y="679" type="line"/>
    </contour>
  </outline>
</glyph>
<glyph name="uniA7F7.salt" format="2">
  <advance width="716"/>
  <outline>
    <contour>
      <point x="100" y="443" type="line"/>
      <point x="65" y="290" type="line"/>
      <point x="661" y="290" type="line"/>
      <point x="696" y="443" type="line"/>
    </contour>
  </outline>
</glyph>
